<mxfile host="app.diagrams.net" modified="2021-03-07T03:32:23.402Z" agent="5.0 (Windows NT 6.1) AppleWebKit/537.36 (KHTML, like Gecko) Chrome/88.0.4324.190 Safari/537.36" etag="GqQY56KDiPLJhz7iyM8W" version="14.4.4" type="github">
  <diagram id="r-q9BiQXBwn9JyYvfPFh" name="Page-1">
    <mxGraphModel dx="868" dy="482" grid="1" gridSize="10" guides="1" tooltips="1" connect="1" arrows="1" fold="1" page="1" pageScale="1" pageWidth="850" pageHeight="1100" math="0" shadow="0">
      <root>
        <mxCell id="0" />
        <mxCell id="1" parent="0" />
        <mxCell id="eG_0CHaYLiDFAWbf7He8-1" value="" style="verticalLabelPosition=bottom;html=1;verticalAlign=top;strokeWidth=1;align=center;outlineConnect=0;dashed=0;outlineConnect=0;shape=mxgraph.aws3d.elasticLoadBalancing;fillColor=#ECECEC;strokeColor=#5E5E5E;aspect=fixed;" parent="1" vertex="1">
          <mxGeometry x="164.5" y="403" width="72" height="69" as="geometry" />
        </mxCell>
        <mxCell id="eG_0CHaYLiDFAWbf7He8-2" value="" style="outlineConnect=0;dashed=0;verticalLabelPosition=bottom;verticalAlign=top;align=center;html=1;shape=mxgraph.aws3.ec2;fillColor=#F58534;gradientColor=none;" parent="1" vertex="1">
          <mxGeometry x="344.5" y="307.5" width="76.5" height="93" as="geometry" />
        </mxCell>
        <mxCell id="eG_0CHaYLiDFAWbf7He8-3" value="" style="outlineConnect=0;dashed=0;verticalLabelPosition=bottom;verticalAlign=top;align=center;html=1;shape=mxgraph.aws3.ec2;fillColor=#F58534;gradientColor=none;" parent="1" vertex="1">
          <mxGeometry x="344.5" y="477.5" width="76.5" height="93" as="geometry" />
        </mxCell>
        <mxCell id="eG_0CHaYLiDFAWbf7He8-4" value="" style="outlineConnect=0;dashed=0;verticalLabelPosition=bottom;verticalAlign=top;align=center;html=1;shape=mxgraph.aws3.rds_db_instance;fillColor=#2E73B8;gradientColor=none;" parent="1" vertex="1">
          <mxGeometry x="523.5" y="404.5" width="49.5" height="66" as="geometry" />
        </mxCell>
        <mxCell id="eG_0CHaYLiDFAWbf7He8-5" value="" style="outlineConnect=0;dashed=0;verticalLabelPosition=bottom;verticalAlign=top;align=center;html=1;shape=mxgraph.aws3.s3;fillColor=#E05243;gradientColor=none;" parent="1" vertex="1">
          <mxGeometry x="721" y="377.5" width="76.5" height="93" as="geometry" />
        </mxCell>
        <mxCell id="eG_0CHaYLiDFAWbf7He8-6" value="" style="points=[[0,0,0],[0.25,0,0],[0.5,0,0],[0.75,0,0],[1,0,0],[0,1,0],[0.25,1,0],[0.5,1,0],[0.75,1,0],[1,1,0],[0,0.25,0],[0,0.5,0],[0,0.75,0],[1,0.25,0],[1,0.5,0],[1,0.75,0]];outlineConnect=0;fontColor=#232F3E;gradientColor=#F78E04;gradientDirection=north;fillColor=#D05C17;strokeColor=#ffffff;dashed=0;verticalLabelPosition=bottom;verticalAlign=top;align=center;html=1;fontSize=12;fontStyle=0;aspect=fixed;shape=mxgraph.aws4.resourceIcon;resIcon=mxgraph.aws4.elemental_mediaconvert;" parent="1" vertex="1">
          <mxGeometry x="661.5" y="514" width="78" height="78" as="geometry" />
        </mxCell>
        <mxCell id="eG_0CHaYLiDFAWbf7He8-8" value="" style="outlineConnect=0;dashed=0;verticalLabelPosition=bottom;verticalAlign=top;align=center;html=1;shape=mxgraph.aws3.users;fillColor=#D2D3D3;gradientColor=none;" parent="1" vertex="1">
          <mxGeometry y="408.5" width="66" height="63" as="geometry" />
        </mxCell>
        <mxCell id="eG_0CHaYLiDFAWbf7He8-9" value="" style="verticalLabelPosition=bottom;html=1;verticalAlign=top;strokeWidth=1;align=center;outlineConnect=0;dashed=0;outlineConnect=0;shape=mxgraph.aws3d.elasticLoadBalancing;fillColor=#ECECEC;strokeColor=#5E5E5E;aspect=fixed;" parent="1" vertex="1">
          <mxGeometry x="88" y="683" width="72" height="69" as="geometry" />
        </mxCell>
        <mxCell id="eG_0CHaYLiDFAWbf7He8-10" value="" style="outlineConnect=0;dashed=0;verticalLabelPosition=bottom;verticalAlign=top;align=center;html=1;shape=mxgraph.aws3.ec2;fillColor=#F58534;gradientColor=none;" parent="1" vertex="1">
          <mxGeometry x="430" y="669.5" width="76.5" height="93" as="geometry" />
        </mxCell>
        <mxCell id="eG_0CHaYLiDFAWbf7He8-11" value="" style="outlineConnect=0;dashed=0;verticalLabelPosition=bottom;verticalAlign=top;align=center;html=1;shape=mxgraph.aws3.rds_db_instance;fillColor=#2E73B8;gradientColor=none;" parent="1" vertex="1">
          <mxGeometry x="752.5" y="683" width="49.5" height="66" as="geometry" />
        </mxCell>
        <mxCell id="eG_0CHaYLiDFAWbf7He8-12" value="" style="outlineConnect=0;dashed=0;verticalLabelPosition=bottom;verticalAlign=top;align=center;html=1;shape=mxgraph.aws3.cloudfront;fillColor=#F58536;gradientColor=none;" parent="1" vertex="1">
          <mxGeometry x="88" y="77.5" width="76.5" height="93" as="geometry" />
        </mxCell>
        <mxCell id="eG_0CHaYLiDFAWbf7He8-14" value="Load balance the incoming request to the connected EC2,&lt;br&gt;We can use Round-Robin or Least Outstanding Request Algorithm&lt;br&gt;" style="text;html=1;strokeColor=none;fillColor=none;align=center;verticalAlign=middle;whiteSpace=wrap;rounded=0;" parent="1" vertex="1">
          <mxGeometry x="104" y="860" width="40" height="20" as="geometry" />
        </mxCell>
        <mxCell id="eG_0CHaYLiDFAWbf7He8-15" value="All the dotnet core Frontend and Backend applicatons runs&amp;nbsp;into this EC2" style="text;html=1;strokeColor=none;fillColor=none;align=center;verticalAlign=middle;whiteSpace=wrap;rounded=0;" parent="1" vertex="1">
          <mxGeometry x="448.25" y="870" width="40" height="10" as="geometry" />
        </mxCell>
        <mxCell id="eG_0CHaYLiDFAWbf7He8-23" value="This AWS MySQL&lt;br&gt;RDS only have Databases" style="text;html=1;strokeColor=none;fillColor=none;align=center;verticalAlign=middle;whiteSpace=wrap;rounded=0;" parent="1" vertex="1">
          <mxGeometry x="752.5" y="870" width="40" height="10" as="geometry" />
        </mxCell>
        <mxCell id="eG_0CHaYLiDFAWbf7He8-26" value="" style="endArrow=none;dashed=1;html=1;" parent="1" edge="1">
          <mxGeometry width="50" height="50" relative="1" as="geometry">
            <mxPoint x="120" y="600" as="sourcePoint" />
            <mxPoint x="120" y="280" as="targetPoint" />
          </mxGeometry>
        </mxCell>
        <mxCell id="eG_0CHaYLiDFAWbf7He8-27" value="" style="endArrow=none;dashed=1;html=1;" parent="1" edge="1">
          <mxGeometry width="50" height="50" relative="1" as="geometry">
            <mxPoint x="600" y="600" as="sourcePoint" />
            <mxPoint x="600" y="280" as="targetPoint" />
          </mxGeometry>
        </mxCell>
        <mxCell id="eG_0CHaYLiDFAWbf7He8-28" value="" style="endArrow=none;dashed=1;html=1;" parent="1" edge="1">
          <mxGeometry width="50" height="50" relative="1" as="geometry">
            <mxPoint x="120" y="280" as="sourcePoint" />
            <mxPoint x="600" y="280" as="targetPoint" />
          </mxGeometry>
        </mxCell>
        <mxCell id="eG_0CHaYLiDFAWbf7He8-29" value="" style="endArrow=none;dashed=1;html=1;" parent="1" edge="1">
          <mxGeometry width="50" height="50" relative="1" as="geometry">
            <mxPoint x="120" y="600" as="sourcePoint" />
            <mxPoint x="600" y="600" as="targetPoint" />
          </mxGeometry>
        </mxCell>
        <mxCell id="eG_0CHaYLiDFAWbf7He8-30" value="" style="endArrow=none;dashed=1;html=1;" parent="1" edge="1">
          <mxGeometry width="50" height="50" relative="1" as="geometry">
            <mxPoint x="320" y="580" as="sourcePoint" />
            <mxPoint x="320" y="300" as="targetPoint" />
          </mxGeometry>
        </mxCell>
        <mxCell id="eG_0CHaYLiDFAWbf7He8-31" value="" style="endArrow=none;dashed=1;html=1;" parent="1" edge="1">
          <mxGeometry width="50" height="50" relative="1" as="geometry">
            <mxPoint x="440" y="577.5" as="sourcePoint" />
            <mxPoint x="440" y="297.5" as="targetPoint" />
          </mxGeometry>
        </mxCell>
        <mxCell id="eG_0CHaYLiDFAWbf7He8-32" value="" style="endArrow=none;dashed=1;html=1;" parent="1" edge="1">
          <mxGeometry width="50" height="50" relative="1" as="geometry">
            <mxPoint x="440" y="300" as="sourcePoint" />
            <mxPoint x="320" y="300" as="targetPoint" />
          </mxGeometry>
        </mxCell>
        <mxCell id="eG_0CHaYLiDFAWbf7He8-33" value="" style="endArrow=none;dashed=1;html=1;" parent="1" edge="1">
          <mxGeometry width="50" height="50" relative="1" as="geometry">
            <mxPoint x="440" y="580" as="sourcePoint" />
            <mxPoint x="320" y="580" as="targetPoint" />
          </mxGeometry>
        </mxCell>
        <mxCell id="eG_0CHaYLiDFAWbf7He8-34" value="Zone A" style="text;html=1;strokeColor=none;fillColor=none;align=center;verticalAlign=middle;whiteSpace=wrap;rounded=0;" parent="1" vertex="1">
          <mxGeometry x="362.38" y="295" width="42.75" height="20" as="geometry" />
        </mxCell>
        <mxCell id="eG_0CHaYLiDFAWbf7He8-35" value="Zone B" style="text;html=1;strokeColor=none;fillColor=none;align=center;verticalAlign=middle;whiteSpace=wrap;rounded=0;" parent="1" vertex="1">
          <mxGeometry x="361" y="563" width="42.75" height="20" as="geometry" />
        </mxCell>
        <mxCell id="eG_0CHaYLiDFAWbf7He8-38" value="Frontend and Backend Target Group" style="text;html=1;strokeColor=none;fillColor=none;align=center;verticalAlign=middle;whiteSpace=wrap;rounded=0;" parent="1" vertex="1">
          <mxGeometry x="360" y="427.5" width="40" height="20" as="geometry" />
        </mxCell>
        <mxCell id="eG_0CHaYLiDFAWbf7He8-42" value="EC2" style="text;html=1;strokeColor=none;fillColor=none;align=center;verticalAlign=middle;whiteSpace=wrap;rounded=0;" parent="1" vertex="1">
          <mxGeometry x="363.76" y="344" width="40" height="20" as="geometry" />
        </mxCell>
        <mxCell id="eG_0CHaYLiDFAWbf7He8-43" value="EC2" style="text;html=1;strokeColor=none;fillColor=none;align=center;verticalAlign=middle;whiteSpace=wrap;rounded=0;" parent="1" vertex="1">
          <mxGeometry x="362.38" y="514" width="40" height="20" as="geometry" />
        </mxCell>
        <mxCell id="eG_0CHaYLiDFAWbf7He8-44" value="ALB" style="text;html=1;strokeColor=none;fillColor=none;align=center;verticalAlign=middle;whiteSpace=wrap;rounded=0;" parent="1" vertex="1">
          <mxGeometry x="180.5" y="446" width="40" height="20" as="geometry" />
        </mxCell>
        <mxCell id="eG_0CHaYLiDFAWbf7He8-45" value="RDS" style="text;html=1;strokeColor=none;fillColor=none;align=center;verticalAlign=middle;whiteSpace=wrap;rounded=0;" parent="1" vertex="1">
          <mxGeometry x="529.25" y="435" width="40" height="20" as="geometry" />
        </mxCell>
        <mxCell id="eG_0CHaYLiDFAWbf7He8-46" value="Zone A" style="text;html=1;strokeColor=none;fillColor=none;align=center;verticalAlign=middle;whiteSpace=wrap;rounded=0;" parent="1" vertex="1">
          <mxGeometry x="527.87" y="380" width="42.75" height="20" as="geometry" />
        </mxCell>
        <mxCell id="eG_0CHaYLiDFAWbf7He8-47" value="" style="outlineConnect=0;dashed=0;verticalLabelPosition=bottom;verticalAlign=top;align=center;html=1;shape=mxgraph.aws3.rds_db_instance_read_replica;fillColor=#2E73B8;gradientColor=none;" parent="1" vertex="1">
          <mxGeometry x="523.5" y="514" width="49.5" height="66" as="geometry" />
        </mxCell>
        <mxCell id="eG_0CHaYLiDFAWbf7He8-48" value="RDS" style="text;html=1;strokeColor=none;fillColor=none;align=center;verticalAlign=middle;whiteSpace=wrap;rounded=0;" parent="1" vertex="1">
          <mxGeometry x="527.25" y="546" width="40" height="20" as="geometry" />
        </mxCell>
        <mxCell id="eG_0CHaYLiDFAWbf7He8-49" value="VPC Network" style="text;html=1;strokeColor=none;fillColor=none;align=center;verticalAlign=middle;whiteSpace=wrap;rounded=0;" parent="1" vertex="1">
          <mxGeometry x="246.5" y="250.5" width="273.5" height="20" as="geometry" />
        </mxCell>
        <mxCell id="eG_0CHaYLiDFAWbf7He8-50" value="S3" style="text;html=1;strokeColor=none;fillColor=none;align=center;verticalAlign=middle;whiteSpace=wrap;rounded=0;" parent="1" vertex="1">
          <mxGeometry x="739.5" y="414" width="40" height="20" as="geometry" />
        </mxCell>
        <mxCell id="eG_0CHaYLiDFAWbf7He8-51" value="Media Converter" style="text;html=1;strokeColor=none;fillColor=none;align=center;verticalAlign=middle;whiteSpace=wrap;rounded=0;" parent="1" vertex="1">
          <mxGeometry x="680.5" y="543" width="40" height="20" as="geometry" />
        </mxCell>
        <mxCell id="eG_0CHaYLiDFAWbf7He8-52" value="CloudFront" style="text;html=1;strokeColor=none;fillColor=none;align=center;verticalAlign=middle;whiteSpace=wrap;rounded=0;" parent="1" vertex="1">
          <mxGeometry x="106.25" y="114" width="40" height="20" as="geometry" />
        </mxCell>
        <mxCell id="eG_0CHaYLiDFAWbf7He8-53" value="Users" style="text;html=1;strokeColor=none;fillColor=none;align=center;verticalAlign=middle;whiteSpace=wrap;rounded=0;" parent="1" vertex="1">
          <mxGeometry x="13" y="408" width="40" height="20" as="geometry" />
        </mxCell>
        <mxCell id="eG_0CHaYLiDFAWbf7He8-55" value="" style="shape=flexArrow;endArrow=classic;startArrow=classic;html=1;exitX=1;exitY=0.5;exitDx=0;exitDy=0;exitPerimeter=0;entryX=-0.062;entryY=0.42;entryDx=0;entryDy=0;entryPerimeter=0;" parent="1" source="eG_0CHaYLiDFAWbf7He8-8" edge="1">
          <mxGeometry width="50" height="50" relative="1" as="geometry">
            <mxPoint x="400" y="398" as="sourcePoint" />
            <mxPoint x="160.03600000000006" y="439.98" as="targetPoint" />
          </mxGeometry>
        </mxCell>
        <mxCell id="eG_0CHaYLiDFAWbf7He8-56" value="" style="endArrow=classic;html=1;exitX=0;exitY=0.79;exitDx=0;exitDy=0;exitPerimeter=0;" parent="1" source="eG_0CHaYLiDFAWbf7He8-12" edge="1">
          <mxGeometry width="50" height="50" relative="1" as="geometry">
            <mxPoint x="16" y="364" as="sourcePoint" />
            <mxPoint x="90" y="430" as="targetPoint" />
          </mxGeometry>
        </mxCell>
        <mxCell id="eG_0CHaYLiDFAWbf7He8-57" value="" style="shape=flexArrow;endArrow=classic;startArrow=classic;html=1;exitX=1;exitY=0.5;exitDx=0;exitDy=0;exitPerimeter=0;entryX=-0.062;entryY=0.42;entryDx=0;entryDy=0;entryPerimeter=0;" parent="1" edge="1">
          <mxGeometry width="50" height="50" relative="1" as="geometry">
            <mxPoint x="236.5" y="439.35" as="sourcePoint" />
            <mxPoint x="330.53600000000006" y="439.33000000000004" as="targetPoint" />
          </mxGeometry>
        </mxCell>
        <mxCell id="eG_0CHaYLiDFAWbf7He8-58" value="" style="endArrow=classic;startArrow=classic;html=1;exitX=1;exitY=0.5;exitDx=0;exitDy=0;exitPerimeter=0;" parent="1" source="eG_0CHaYLiDFAWbf7He8-2" edge="1">
          <mxGeometry width="50" height="50" relative="1" as="geometry">
            <mxPoint x="400" y="390" as="sourcePoint" />
            <mxPoint x="520" y="435" as="targetPoint" />
          </mxGeometry>
        </mxCell>
        <mxCell id="eG_0CHaYLiDFAWbf7He8-59" value="" style="endArrow=classic;startArrow=classic;html=1;exitX=1;exitY=0.5;exitDx=0;exitDy=0;exitPerimeter=0;" parent="1" source="eG_0CHaYLiDFAWbf7He8-3" edge="1">
          <mxGeometry width="50" height="50" relative="1" as="geometry">
            <mxPoint x="450" y="520" as="sourcePoint" />
            <mxPoint x="520" y="445" as="targetPoint" />
            <Array as="points" />
          </mxGeometry>
        </mxCell>
        <mxCell id="eG_0CHaYLiDFAWbf7He8-65" value="" style="endArrow=none;html=1;exitX=1;exitY=0.21;exitDx=0;exitDy=0;exitPerimeter=0;" parent="1" source="eG_0CHaYLiDFAWbf7He8-2" edge="1">
          <mxGeometry width="50" height="50" relative="1" as="geometry">
            <mxPoint x="400" y="390" as="sourcePoint" />
            <mxPoint x="421" y="240" as="targetPoint" />
          </mxGeometry>
        </mxCell>
        <mxCell id="eG_0CHaYLiDFAWbf7He8-66" value="" style="endArrow=none;html=1;" parent="1" edge="1">
          <mxGeometry width="50" height="50" relative="1" as="geometry">
            <mxPoint x="420" y="640" as="sourcePoint" />
            <mxPoint x="419.67" y="553" as="targetPoint" />
          </mxGeometry>
        </mxCell>
        <mxCell id="eG_0CHaYLiDFAWbf7He8-67" value="" style="endArrow=none;html=1;entryX=0.645;entryY=-0.208;entryDx=0;entryDy=0;entryPerimeter=0;" parent="1" edge="1">
          <mxGeometry width="50" height="50" relative="1" as="geometry">
            <mxPoint x="760" y="240" as="sourcePoint" />
            <mxPoint x="422.9075" y="240.34000000000003" as="targetPoint" />
          </mxGeometry>
        </mxCell>
        <mxCell id="eG_0CHaYLiDFAWbf7He8-68" value="" style="endArrow=none;html=1;" parent="1" edge="1">
          <mxGeometry width="50" height="50" relative="1" as="geometry">
            <mxPoint x="758" y="640" as="sourcePoint" />
            <mxPoint x="421" y="640" as="targetPoint" />
          </mxGeometry>
        </mxCell>
        <mxCell id="eG_0CHaYLiDFAWbf7He8-69" value="" style="endArrow=classic;html=1;entryX=0.5;entryY=0;entryDx=0;entryDy=0;entryPerimeter=0;" parent="1" target="eG_0CHaYLiDFAWbf7He8-5" edge="1">
          <mxGeometry width="50" height="50" relative="1" as="geometry">
            <mxPoint x="760" y="240" as="sourcePoint" />
            <mxPoint x="740" y="290" as="targetPoint" />
          </mxGeometry>
        </mxCell>
        <mxCell id="eG_0CHaYLiDFAWbf7He8-70" value="" style="endArrow=classic;html=1;entryX=0.5;entryY=1;entryDx=0;entryDy=0;entryPerimeter=0;" parent="1" target="eG_0CHaYLiDFAWbf7He8-5" edge="1">
          <mxGeometry width="50" height="50" relative="1" as="geometry">
            <mxPoint x="759" y="640" as="sourcePoint" />
            <mxPoint x="792.5" y="637.5" as="targetPoint" />
          </mxGeometry>
        </mxCell>
        <mxCell id="eG_0CHaYLiDFAWbf7He8-71" value="Zone B" style="text;html=1;strokeColor=none;fillColor=none;align=center;verticalAlign=middle;whiteSpace=wrap;rounded=0;" parent="1" vertex="1">
          <mxGeometry x="527.25" y="574.5" width="42.75" height="20" as="geometry" />
        </mxCell>
        <mxCell id="eG_0CHaYLiDFAWbf7He8-72" value="" style="endArrow=classic;startArrow=classic;html=1;" parent="1" edge="1">
          <mxGeometry width="50" height="50" relative="1" as="geometry">
            <mxPoint x="700" y="514" as="sourcePoint" />
            <mxPoint x="750" y="464" as="targetPoint" />
          </mxGeometry>
        </mxCell>
        <mxCell id="eG_0CHaYLiDFAWbf7He8-73" value="" style="endArrow=classic;html=1;entryX=1;entryY=0.5;entryDx=0;entryDy=0;entryPerimeter=0;" parent="1" target="eG_0CHaYLiDFAWbf7He8-12" edge="1">
          <mxGeometry width="50" height="50" relative="1" as="geometry">
            <mxPoint x="800" y="124" as="sourcePoint" />
            <mxPoint x="450" y="340" as="targetPoint" />
          </mxGeometry>
        </mxCell>
        <mxCell id="eG_0CHaYLiDFAWbf7He8-74" value="" style="endArrow=classic;html=1;entryX=1;entryY=0.5;entryDx=0;entryDy=0;entryPerimeter=0;" parent="1" target="eG_0CHaYLiDFAWbf7He8-5" edge="1">
          <mxGeometry width="50" height="50" relative="1" as="geometry">
            <mxPoint x="798" y="120" as="sourcePoint" />
            <mxPoint x="450" y="340" as="targetPoint" />
          </mxGeometry>
        </mxCell>
        <mxCell id="lQRdfGrs81SCB75VnRj4-2" value="Application Loadbalancer" style="text;html=1;strokeColor=none;fillColor=none;align=center;verticalAlign=middle;whiteSpace=wrap;rounded=0;" vertex="1" parent="1">
          <mxGeometry x="180.5" y="706" width="40" height="20" as="geometry" />
        </mxCell>
        <mxCell id="lQRdfGrs81SCB75VnRj4-3" value="EC2 Instance" style="text;html=1;strokeColor=none;fillColor=none;align=center;verticalAlign=middle;whiteSpace=wrap;rounded=0;" vertex="1" parent="1">
          <mxGeometry x="528.63" y="706" width="40" height="20" as="geometry" />
        </mxCell>
        <mxCell id="lQRdfGrs81SCB75VnRj4-4" value="MySql RDS Master" style="text;html=1;strokeColor=none;fillColor=none;align=center;verticalAlign=middle;whiteSpace=wrap;rounded=0;" vertex="1" parent="1">
          <mxGeometry x="699.5" y="707.5" width="40" height="20" as="geometry" />
        </mxCell>
        <mxCell id="lQRdfGrs81SCB75VnRj4-5" value="" style="endArrow=classic;html=1;entryX=0.5;entryY=0.02;entryDx=0;entryDy=0;entryPerimeter=0;exitX=0.5;exitY=0.98;exitDx=0;exitDy=0;exitPerimeter=0;" edge="1" parent="1" source="eG_0CHaYLiDFAWbf7He8-4" target="eG_0CHaYLiDFAWbf7He8-47">
          <mxGeometry width="50" height="50" relative="1" as="geometry">
            <mxPoint x="400" y="540" as="sourcePoint" />
            <mxPoint x="450" y="490" as="targetPoint" />
          </mxGeometry>
        </mxCell>
      </root>
    </mxGraphModel>
  </diagram>
</mxfile>
